# xmcd CD database file
#
# Track frame offsets:
#	150
#	13165
#	27855
#	45565
#	61610
#	74950
#	88617
#	103920
#	118835
#	138470
#
# Disc length: 2044 seconds
#
# Revision: 0
# Processed by: cddbd v1.5.1PL0 Copyright (c) Steve Scherf et al.
# Submitted via: CDex 1.51
#
DISCID=8e07fa0a
DTITLE=Woolvin James - Bound To Pay
DYEAR=1900
DGENRE=Country
TTITLE0=When Hell Freezes Over
TTITLE1=Bound To Pay
TTITLE2=Magnolia
TTITLE3=Hey Carlene
TTITLE4=A Cowboy Only Knows
TTITLE5=Kinfolk Boogie
TTITLE6=Cold Dark Night (In Montgomery)
TTITLE7=Once Called A Heart
TTITLE8=Learned How To Say Goodby
TTITLE9=Live With The Rain
EXTD=
EXTT0=
EXTT1=
EXTT2=
EXTT3=
EXTT4=
EXTT5=
EXTT6=
EXTT7=
EXTT8=
EXTT9=
PLAYORDER=
